<?xml version="1.0" encoding="UTF-8"?>
<svg width="128px" height="128px" viewBox="0 0 240 137" version="1.1" xmlns="http://www.w3.org/2000/svg" xmlns:xlink="http://www.w3.org/1999/xlink">
    <!-- Generator: Sketch 41.2 (35397) - http://www.bohemiancoding.com/sketch -->
    <title>planhat-logo3</title>
    <desc>Created with Sketch.</desc>
    <defs></defs>
    <g id="New-logo" stroke="none" stroke-width="1" fill="none" fill-rule="evenodd">
        <g id="Planhat-logo" transform="translate(-1363.000000, -1915.000000)" fill="#263238">
            <g id="planhat-logo3" transform="translate(1363.000000, 1915.200000)">
                <ellipse id="Oval" transform="translate(120.000000, 102.000000) scale(-1, -1) translate(-120.000000, -102.000000) " cx="120" cy="102" rx="120" ry="34"></ellipse>
                <path d="M118.245342,2.27387157e-13 C118.245342,2.27387157e-13 107.421621,0.179195846 95.7128797,4.61102335 C84.0041387,9.04285085 77.3403087,14.8243634 72.8399241,19.0298724 C69.9458307,21.734338 66.0753274,26.1271613 62.7920651,31.0866644 C59.5088028,36.0461676 58.4120115,38.7725363 56.8516531,42.407169 C53.022174,51.3273951 52,62.1733288 52,62.1733288 L187.983214,62.1733288 C187.983214,62.1733288 186.739859,51.3520513 181.787741,39.954206 C176.835622,28.5563608 172.049102,23.4860889 167.21246,19.0298724 C162.293095,14.4974399 153.454193,8.17644819 144.59913,4.92508751 C143.179219,4.40373138 141.778461,3.83065792 140.00281,3.27761456 C138.227159,2.7245712 135.518775,2.0362068 133.530141,1.62215531 C132.316433,1.36945053 130.266145,1.00795217 128.338487,0.771611239 C126.410829,0.535270309 120.21621,2.27373675e-13 120.21621,2.27373675e-13 L118.245342,2.27387157e-13 Z" id="Path-10"></path>
            </g>
        </g>
    </g>
</svg>