<?xml version="1.0" standalone="no"?>
<!DOCTYPE svg PUBLIC "-//W3C//DTD SVG 20010904//EN"
 "http://www.w3.org/TR/2001/REC-SVG-20010904/DTD/svg10.dtd">
<svg version="1.0" xmlns="http://www.w3.org/2000/svg"
 width="640.000000pt" height="360.000000pt" viewBox="0 0 640.000000 360.000000"
 preserveAspectRatio="xMidYMid meet">
<metadata>
Created by potrace 1.15, written by Peter Selinger 2001-2017
</metadata>
<g transform="translate(0.000000,360.000000) scale(0.100000,-0.100000)"
fill="#000000" stroke="none">
<path d="M3043 2844 c-157 -22 -326 -88 -457 -177 -136 -92 -286 -276 -355
-434 -34 -77 -66 -194 -77 -280 l-7 -53 1038 0 1037 0 -7 48 c-17 117 -78 296
-137 402 -109 194 -316 362 -548 443 -90 31 -146 43 -265 57 -105 12 -103 12
-222 -6z"/>
<path d="M2865 1824 c-104 -4 -380 -30 -475 -45 -147 -22 -199 -31 -270 -46
-363 -74 -631 -193 -717 -317 -29 -42 -33 -56 -33 -111 0 -53 4 -68 30 -103
95 -132 366 -252 725 -323 346 -68 623 -92 1060 -92 438 0 705 23 1061 92 282
55 552 158 661 254 71 62 93 103 93 172 0 50 -5 70 -26 101 -129 193 -567 334
-1254 404 -107 11 -691 20 -855 14z"/>
</g>
</svg>
